<svg width="165" height="34" viewBox="0 0 165 34" fill="none" xmlns="http://www.w3.org/2000/svg">
<path d="M33.8516 33.1881V0H39.8164V33.1881H33.8516Z" fill="#FDFDFD"/>
<path d="M64.7899 33.1885V30.0954C62.816 32.426 59.1387 34.0002 56.0455 34.0002C49.0475 34.0002 43.9805 28.1276 43.9805 20.5885C43.9805 13.0493 49.2259 7.44727 56.4514 7.44727C59.9504 7.44727 63.4063 9.5073 64.7038 11.4382H64.7961V8.29588H70.269V33.1885H64.7961H64.7899ZM64.6054 20.6746C64.6054 16.327 61.5984 12.9141 57.2938 12.9141C52.9893 12.9141 49.9392 16.413 49.9392 20.8529C49.9392 25.0222 53.1246 28.5211 57.3369 28.5211C61.5492 28.5211 64.6054 24.9361 64.6054 20.6746Z" fill="#FDFDFD"/>
<path d="M159.411 33.1885V30.0954C157.437 32.426 153.76 34.0002 150.667 34.0002C143.669 34.0002 138.602 28.1276 138.602 20.5885C138.602 13.0493 143.847 7.44727 151.072 7.44727C154.571 7.44727 158.027 9.5073 159.325 11.4382H159.417V8.29588H164.89V33.1885H159.417H159.411ZM159.233 20.6746C159.233 16.327 156.226 12.9141 151.921 12.9141C147.617 12.9141 144.566 16.413 144.566 20.8529C144.566 25.0222 147.752 28.5211 151.964 28.5211C156.176 28.5211 159.233 24.9361 159.233 20.6746Z" fill="#FDFDFD"/>
<path d="M0 33.1886V0.000488281H28.4408V5.744H6.14322V33.1948H0V33.1886Z" fill="#FDFDFD"/>
<path d="M16.5352 21.7444L3.36328 8.57247L7.58175 4.354L20.7475 17.5198L16.5291 21.7383L16.5352 21.7444Z" fill="#FDFDFD"/>
<path d="M28.4397 21.732H16.5469V15.7671H28.4397V21.732Z" fill="#FDFDFD"/>
<path d="M75.1641 33.1883V7.96973H81.1289V33.1883H75.1641Z" fill="#FDFDFD"/>
<path d="M128.284 31.1284H134.434V5.77458H128.284V31.1284Z" fill="#FDFDFD"/>
<path d="M112.656 5.79253V11.9419L133.853 11.9419V5.79253L112.656 5.79253Z" fill="#FDFDFD"/>
<path d="M96.8587 27.414L104.029 20.2438L111.199 27.414H117.182L132.728 11.8684L128.509 7.6499L114.194 21.9656L106.716 14.4941V14.488H106.71H101.348H101.342H101.335V14.4941L94.4973 21.3384L81.1286 7.96967L76.9102 12.1881L92.1421 27.414H96.8587Z" fill="#FDFDFD"/>
</svg>
