<svg width="35" height="35" viewBox="0 0 35 35" fill="none" xmlns="http://www.w3.org/2000/svg">
<rect width="35" height="35" fill="#1E1E1E"/>
<g id="Pagina colaborador">
<rect width="1920" height="7948" transform="translate(-740.334 -2213.67)" fill="#FBFBFF"/>
<g id="Frame 20353">
<g id="Frame 20270">
<g id="Frame 20241">
<rect x="-48.5" y="-400.171" width="536.333" height="555.671" fill="#F7F8FC"/>
<rect x="-48.5" y="-400.171" width="536.333" height="555.671" stroke="#E8E9F1"/>
<g id="Frame 20203">
<g id="Frame 20278">
<g id="CheckCircle">
<rect width="35" height="35" rx="4" fill="#FD0342" fill-opacity="0.16"/>
<rect x="0.5" y="0.5" width="34" height="34" rx="3.5" stroke="#FD0342" stroke-opacity="0.16"/>
<path id="Vector" d="M22.8294 14.8629C22.9081 14.9415 22.9705 15.0348 23.0131 15.1375C23.0557 15.2402 23.0776 15.3503 23.0776 15.4615C23.0776 15.5727 23.0557 15.6828 23.0131 15.7856C22.9705 15.8883 22.9081 15.9816 22.8294 16.0602L16.9063 21.9833C16.8278 22.0619 16.7344 22.1244 16.6317 22.1669C16.529 22.2095 16.4189 22.2314 16.3077 22.2314C16.1965 22.2314 16.0864 22.2095 15.9837 22.1669C15.8809 22.1244 15.7876 22.0619 15.709 21.9833L13.1706 19.4448C13.0118 19.286 12.9226 19.0707 12.9226 18.8462C12.9226 18.6216 13.0118 18.4063 13.1706 18.2475C13.3294 18.0887 13.5447 17.9995 13.7692 17.9995C13.9938 17.9995 14.2091 18.0887 14.3679 18.2475L16.3077 20.1884L21.6321 14.8629C21.7107 14.7842 21.804 14.7218 21.9067 14.6792C22.0095 14.6366 22.1196 14.6147 22.2308 14.6147C22.342 14.6147 22.4521 14.6366 22.5548 14.6792C22.6575 14.7218 22.7508 14.7842 22.8294 14.8629ZM29 18C29 20.1756 28.3549 22.3023 27.1462 24.1113C25.9375 25.9202 24.2195 27.3301 22.2095 28.1627C20.1995 28.9952 17.9878 29.2131 15.854 28.7886C13.7202 28.3642 11.7602 27.3165 10.2218 25.7782C8.68345 24.2398 7.6358 22.2798 7.21137 20.146C6.78693 18.0122 7.00477 15.8005 7.83733 13.7905C8.66989 11.7805 10.0798 10.0625 11.8887 8.85383C13.6977 7.64514 15.8244 7 18 7C20.9164 7.00308 23.7125 8.16299 25.7748 10.2252C27.837 12.2875 28.9969 15.0836 29 18ZM27.3077 18C27.3077 16.1591 26.7618 14.3596 25.7391 12.8289C24.7163 11.2983 23.2627 10.1053 21.5619 9.40081C19.8611 8.69634 17.9897 8.51201 16.1842 8.87115C14.3786 9.23029 12.7202 10.1168 11.4185 11.4185C10.1168 12.7202 9.2303 14.3786 8.87116 16.1842C8.51202 17.9897 8.69634 19.8611 9.40082 21.5619C10.1053 23.2627 11.2983 24.7163 12.8289 25.7391C14.3596 26.7618 16.1591 27.3077 18 27.3077C20.4677 27.3049 22.8335 26.3234 24.5784 24.5784C26.3234 22.8335 27.3049 20.4677 27.3077 18Z" fill="#FD0342"/>
</g>
</g>
</g>
</g>
</g>
</g>
</g>
</svg>
